<svg width="3900" height="1096" xmlns="http://www.w3.org/2000/svg" xmlns:xlink="http://www.w3.org/1999/xlink" xml:space="preserve" overflow="hidden"><defs><filter id="fx0" x="-10%" y="-10%" width="120%" height="120%" filterUnits="userSpaceOnUse" primitiveUnits="userSpaceOnUse"><feComponentTransfer color-interpolation-filters="sRGB"><feFuncR type="discrete" tableValues="0.666667 0.666667"/><feFuncG type="discrete" tableValues="0.788235 0.788235"/><feFuncB type="discrete" tableValues="0.890196 0.890196"/><feFuncA type="linear" slope="0.388235" intercept="0"/></feComponentTransfer><feGaussianBlur stdDeviation="6.49306 6.49306"/></filter></defs><g transform="translate(-268 -774)"><g filter="url(#fx0)" transform="matrix(4 0 0 4 268 774)"><g><path d="M19.725 58.7912C19.725 37.1935 37.2334 19.685 58.8311 19.685L916.169 19.685C937.767 19.685 955.275 37.1935 955.275 58.7912L955.275 215.209C955.275 236.807 937.767 254.315 916.169 254.315L58.8311 254.315C37.2334 254.315 19.725 236.807 19.725 215.209Z" fill="#FFFFFF" fill-rule="evenodd"/></g></g><path d="M328 1006C328 918.741 398.741 848 486.004 848L3950 848C4037.26 848 4108 918.741 4108 1006L4108 1638C4108 1725.26 4037.26 1796 3950 1796L486.004 1796C398.741 1796 328 1725.26 328 1638Z" fill="#FFFFFF" fill-rule="evenodd"/><path d="M926.976 1302 447.365 1302C432.812 1302 421 1314.13 421 1328.69 421 1343.25 432.788 1355.38 447.365 1355.38L646.52 1355.38 666.845 1390.41C670.338 1396.48 679.094 1396.55 682.611 1390.49L702.936 1355.38 927 1355.38 927 1302Z" fill="#1269B0" fill-rule="evenodd"/><path d="M1255.37 1299.99 1229.46 1255.55C1225.97 1249.53 1217.23 1249.46 1213.71 1255.48L1187.81 1299.99 970 1299.99 970 1353 1474 1353 1474 1299.99 1255.34 1299.99Z" fill="#AAC9E3" fill-rule="evenodd"/><path d="M285.932 49.4683 259.978 4.59905C256.482-1.48422 247.717-1.55703 244.196 4.52599L218.242 49.4683 0 49.4683 0 103 505 103 505 49.4683 285.908 49.4683Z" fill="#1269B0" fill-rule="evenodd" transform="matrix(1 0 0 -1 1517 1405)"/><path d="M2350.37 1299.99 2324.46 1255.55C2320.97 1249.53 2312.23 1249.46 2308.71 1255.48L2282.81 1299.99 2065 1299.99 2065 1353 2569 1353 2569 1299.99 2350.34 1299.99Z" fill="#AAC9E3" fill-rule="evenodd"/><path d="M285.366 49.4683 259.463 4.59905C255.974-1.48422 247.227-1.55703 243.713 4.52599L217.81 49.4683 0 49.4683 0 103 504 103 504 49.4683 285.341 49.4683Z" fill="#1269B0" fill-rule="evenodd" transform="matrix(1 0 0 -1 2612 1405)"/><path d="M505.976 0 26.3648 0C11.8121 0 0 12.1315 0 26.6892 0 41.247 11.7879 53.3785 26.3648 53.3785L225.52 53.3785 245.845 88.4142C249.338 94.48 258.093 94.5526 261.611 88.487L281.936 53.3785 506 53.3785 506 0Z" fill="#AAC9E3" fill-rule="evenodd" transform="matrix(-1 0 0 1 3665 1302)"/><path d="M569.5 1555.5C569.5 1490.88 621.883 1438.5 686.5 1438.5 751.117 1438.5 803.5 1490.88 803.5 1555.5 803.5 1620.12 751.117 1672.5 686.5 1672.5 621.883 1672.5 569.5 1620.12 569.5 1555.5Z" stroke="#1269B0" stroke-width="11.4583" stroke-linecap="round" stroke-linejoin="round" stroke-miterlimit="10" fill="none" fill-rule="evenodd"/><text fill="#404040" font-family="Arial,Arial_MSFontService,sans-serif" font-weight="700" font-size="64" transform="matrix(1 0 0 1 860.078 1483)">Bachelor</text><text font-family="Arial,Arial_MSFontService,sans-serif" font-weight="400" font-size="48" transform="matrix(1 0 0 1 860.078 1569)">Civil Engineering, Top of </text><text font-family="Arial,Arial_MSFontService,sans-serif" font-weight="400" font-size="48" transform="matrix(1 0 0 1 860.078 1642)">Class (1</text><text font-family="Arial,Arial_MSFontService,sans-serif" font-weight="400" font-size="32" transform="matrix(1 0 0 1 1037.11 1628)">st</text><text font-family="Arial,Arial_MSFontService,sans-serif" font-weight="400" font-size="48" transform="matrix(1 0 0 1 1062.32 1642)">/750)</text><path d="M1664.5 1555.5C1664.5 1490.88 1716.88 1438.5 1781.5 1438.5 1846.12 1438.5 1898.5 1490.88 1898.5 1555.5 1898.5 1620.12 1846.12 1672.5 1781.5 1672.5 1716.88 1672.5 1664.5 1620.12 1664.5 1555.5Z" stroke="#1269B0" stroke-width="11.4583" stroke-linecap="round" stroke-linejoin="round" stroke-miterlimit="10" fill="none" fill-rule="evenodd"/><text fill="#404040" font-family="Arial,Arial_MSFontService,sans-serif" font-weight="700" font-size="64" transform="matrix(1 0 0 1 1955.19 1483)">Lecturer/MSc student</text><text fill="#404040" font-family="Arial,Arial_MSFontService,sans-serif" font-weight="400" font-size="48" transform="matrix(1 0 0 1 1955.19 1569)">M</text><text fill="#404040" font-family="Arial,Arial_MSFontService,sans-serif" font-weight="400" font-size="48" transform="matrix(1 0 0 1 1995.29 1569)">ansoura</text><text fill="#404040" font-family="Arial,Arial_MSFontService,sans-serif" font-weight="400" font-size="48" transform="matrix(1 0 0 1 2183.21 1569)">University</text><text fill="#404040" font-family="Arial,Arial_MSFontService,sans-serif" font-weight="400" font-size="48" transform="matrix(1 0 0 1 1955.19 1642)">Part</text><text fill="#404040" font-family="Arial,Arial_MSFontService,sans-serif" font-weight="400" font-size="48" transform="matrix(1 0 0 1 2043.42 1642)">-</text><text fill="#404040" font-family="Arial,Arial_MSFontService,sans-serif" font-weight="400" font-size="48" transform="matrix(1 0 0 1 2059.46 1642)">time MSc obtained in 2021</text><path d="M2759.5 1555.5C2759.5 1490.88 2811.88 1438.5 2876.5 1438.5 2941.12 1438.5 2993.5 1490.88 2993.5 1555.5 2993.5 1620.12 2941.12 1672.5 2876.5 1672.5 2811.88 1672.5 2759.5 1620.12 2759.5 1555.5Z" stroke="#1269B0" stroke-width="11.4583" stroke-linecap="round" stroke-linejoin="round" stroke-miterlimit="10" fill="none" fill-rule="evenodd"/><text fill="#404040" font-family="Arial,Arial_MSFontService,sans-serif" font-weight="700" font-size="64" transform="matrix(1 0 0 1 3049.54 1483)">PhD</text><text fill="#404040" font-family="Arial,Arial_MSFontService,sans-serif" font-weight="400" font-size="48" transform="matrix(1 0 0 1 3049.54 1569)">ETH </text><text fill="#404040" font-family="Arial,Arial_MSFontService,sans-serif" font-weight="400" font-size="48" transform="matrix(1 0 0 1 3158.97 1569)">Zurich</text><path d="M1117.5 1115.5C1117.5 1050.88 1169.88 998.5 1234.5 998.5 1299.12 998.5 1351.5 1050.88 1351.5 1115.5 1351.5 1180.12 1299.12 1232.5 1234.5 1232.5 1169.88 1232.5 1117.5 1180.12 1117.5 1115.5Z" stroke="#AAC9E3" stroke-width="11.4583" stroke-linecap="round" stroke-linejoin="round" stroke-miterlimit="10" fill="none" fill-rule="evenodd"/><text fill="#404040" font-family="Arial,Arial_MSFontService,sans-serif" font-weight="700" font-size="64" transform="matrix(1 0 0 1 1384.84 1037)">Structural Engineer</text><text fill="#404040" font-family="Arial,Arial_MSFontService,sans-serif" font-weight="400" font-size="48" transform="matrix(1 0 0 1 1389.33 1116)">Part</text><text fill="#404040" font-family="Arial,Arial_MSFontService,sans-serif" font-weight="400" font-size="48" transform="matrix(1 0 0 1 1477.56 1116)">-</text><text fill="#404040" font-family="Arial,Arial_MSFontService,sans-serif" font-weight="400" font-size="48" transform="matrix(1 0 0 1 1493.6 1116)">time</text><text fill="#404040" font-family="Arial,Arial_MSFontService,sans-serif" font-weight="400" font-size="48" transform="matrix(1 0 0 1 1389.33 1189)">Hamed Asker Consulting</text><path d="M2211.5 1104C2211.5 1045.73 2258.73 998.5 2317 998.5 2375.27 998.5 2422.5 1045.73 2422.5 1104 2422.5 1162.27 2375.27 1209.5 2317 1209.5 2258.73 1209.5 2211.5 1162.27 2211.5 1104Z" stroke="#AAC9E3" stroke-width="11.4583" stroke-linecap="round" stroke-linejoin="round" stroke-miterlimit="10" fill="none" fill-rule="evenodd"/><text fill="#404040" font-family="Arial,Arial_MSFontService,sans-serif" font-weight="700" font-size="64" transform="matrix(1 0 0 1 2483.69 1031)">MSc</text><text fill="#404040" font-family="Arial,Arial_MSFontService,sans-serif" font-weight="400" font-size="48" transform="matrix(1 0 0 1 2483.69 1116)">University of Alaska </text><text fill="#404040" font-family="Arial,Arial_MSFontService,sans-serif" font-weight="400" font-size="48" transform="matrix(1 0 0 1 2483.69 1189)">Anchorage</text><path d="M3307.5 1104C3307.5 1045.73 3354.51 998.5 3412.5 998.5 3470.49 998.5 3517.5 1045.73 3517.5 1104 3517.5 1162.27 3470.49 1209.5 3412.5 1209.5 3354.51 1209.5 3307.5 1162.27 3307.5 1104Z" stroke="#AAC9E3" stroke-width="11.4583" stroke-linecap="round" stroke-linejoin="round" stroke-miterlimit="10" stroke-dasharray="22.9167 22.9167" fill="none" fill-rule="evenodd"/><text fill="#404040" font-family="Arial,Arial_MSFontService,sans-serif" font-weight="700" font-size="64" transform="matrix(1 0 0 1 3578.8 1031)">Postdoc</text><text fill="#404040" font-family="Arial,Arial_MSFontService,sans-serif" font-weight="400" font-size="48" transform="matrix(1 0 0 1 3578.8 1116)">MIT</text><text fill="#404040" font-family="Arial,Arial_MSFontService,sans-serif" font-weight="400" font-size="48" transform="matrix(1 0 0 1 3578.8 1189)">SNSF Postdoc.Mobility</text><text fill="#AAC9E3" font-family="Arial,Arial_MSFontService,sans-serif" font-weight="700" font-size="64" transform="matrix(1 0 0 1 1164.14 1078)">2016</text><text fill="#AAC9E3" font-family="Arial,Arial_MSFontService,sans-serif" font-weight="700" font-size="64" transform="matrix(1 0 0 1 1224.6 1136)">-</text><text fill="#AAC9E3" font-family="Arial,Arial_MSFontService,sans-serif" font-weight="700" font-size="64" transform="matrix(1 0 0 1 1164.14 1194)">2018</text><text fill="#1269B0" font-family="Arial,Arial_MSFontService,sans-serif" font-weight="700" font-size="64" transform="matrix(1 0 0 1 616.846 1519)">2011</text><text fill="#1269B0" font-family="Arial,Arial_MSFontService,sans-serif" font-weight="700" font-size="64" transform="matrix(1 0 0 1 675.536 1577)">-</text><text fill="#1269B0" font-family="Arial,Arial_MSFontService,sans-serif" font-weight="700" font-size="64" transform="matrix(1 0 0 1 615.081 1635)">2016</text><text fill="#1269B0" font-family="Arial,Arial_MSFontService,sans-serif" font-weight="700" font-size="64" transform="matrix(1 0 0 1 2804.55 1519)">2022</text><text fill="#1269B0" font-family="Arial,Arial_MSFontService,sans-serif" font-weight="700" font-size="64" transform="matrix(1 0 0 1 2865 1577)">-</text><text fill="#1269B0" font-family="Arial,Arial_MSFontService,sans-serif" font-weight="700" font-size="64" transform="matrix(1 0 0 1 2804.55 1635)">2025</text><text fill="#AAC9E3" font-family="Arial,Arial_MSFontService,sans-serif" font-weight="700" font-size="64" transform="matrix(1 0 0 1 2244.48 1125)">2020</text><text fill="#AAC9E3" font-family="Arial,Arial_MSFontService,sans-serif" font-weight="700" font-size="64" transform="matrix(1 0 0 1 3339.59 1125)">2026</text><text fill="#1269B0" font-family="Arial,Arial_MSFontService,sans-serif" font-weight="700" font-size="50" transform="matrix(1 0 0 1 1723.63 1497)">2017</text><text fill="#1269B0" font-family="Arial,Arial_MSFontService,sans-serif" font-weight="700" font-size="50" transform="matrix(1 0 0 1 1771.48 1542)">-</text><text fill="#1269B0" font-family="Arial,Arial_MSFontService,sans-serif" font-weight="700" font-size="50" transform="matrix(1 0 0 1 1723.63 1588)">2019</text><text fill="#1269B0" font-family="Arial,Arial_MSFontService,sans-serif" font-weight="700" font-size="50" transform="matrix(1 0 0 1 1698.42 1633)">&amp; 2021</text></g></svg>