<svg width="4128" height="1096" viewBox="0 0 4128 1096" xmlns="http://www.w3.org/2000/svg" xmlns:xlink="http://www.w3.org/1999/xlink" xml:space="preserve" overflow="hidden"><defs><filter id="fx0" x="-10%" y="-10%" width="120%" height="120%" filterUnits="userSpaceOnUse" primitiveUnits="userSpaceOnUse"><feComponentTransfer color-interpolation-filters="sRGB"><feFuncR type="discrete" tableValues="0.666667 0.666667"/><feFuncG type="discrete" tableValues="0.788235 0.788235"/><feFuncB type="discrete" tableValues="0.890196 0.890196"/><feFuncA type="linear" slope="0.388235" intercept="0"/></feComponentTransfer><feGaussianBlur stdDeviation="6.4962 6.49306"/></filter><clipPath id="clip1"><rect x="79" y="716" width="4128" height="1096"/></clipPath><clipPath id="clip2"><rect x="0" y="0" width="1033" height="274"/></clipPath></defs><g clip-path="url(#clip1)" transform="translate(-79 -716)"><g filter="url(#fx0)" transform="matrix(3.99806 0 0 4 78 716)"><g clip-path="url(#clip2)" transform="translate(-3.55271e-15 0)"><path d="M19.7746 58.7903C19.7746 37.1931 37.2911 19.685 58.8988 19.685L974.101 19.685C995.709 19.685 1013.23 37.1931 1013.23 58.7903L1013.23 215.21C1013.23 236.807 995.709 254.315 974.101 254.315L58.8988 254.315C37.2911 254.315 19.7746 236.807 19.7746 215.21Z" fill="#FFFFFF" fill-rule="evenodd"/></g></g><path d="M137 948.001C137 860.74 207.74 790 295.001 790L3991 790C4078.26 790 4149 860.74 4149 948.001L4149 1580C4149 1667.26 4078.26 1738 3991 1738L295.001 1738C207.74 1738 137 1667.26 137 1580Z" fill="#FFFFFF" fill-rule="evenodd"/><path d="M736.976 1245 257.365 1245C242.812 1245 231 1257 231 1271.4 231 1285.8 242.788 1297.8 257.365 1297.8L456.52 1297.8 476.845 1332.46C480.338 1338.46 489.093 1338.54 492.611 1332.54L512.936 1297.8 737 1297.8 737 1245Z" fill="#1269B0" fill-rule="evenodd"/><path d="M1065.37 1242.47 1039.46 1197.6C1035.97 1191.52 1027.23 1191.44 1023.71 1197.53L997.81 1242.47 780 1242.47 780 1296 1284 1296 1284 1242.47 1065.34 1242.47Z" fill="#AAC9E3" fill-rule="evenodd"/><path d="M285.366 48.9882 259.463 4.55441C255.974-1.46982 247.227-1.54192 243.713 4.48206L217.81 48.9882 0 48.9882 0 102 504 102 504 48.9882 285.342 48.9882Z" fill="#1269B0" fill-rule="evenodd" transform="matrix(1 0 0 -1 1327 1347)"/><path d="M2159.37 1242.47 2133.46 1197.6C2129.97 1191.52 2121.23 1191.44 2117.71 1197.53L2091.81 1242.47 1874 1242.47 1874 1296 2378 1296 2378 1242.47 2159.34 1242.47Z" fill="#AAC9E3" fill-rule="evenodd"/><path d="M285.366 48.9882 259.463 4.55441C255.974-1.46982 247.227-1.54192 243.713 4.48206L217.81 48.9882 0 48.9882 0 102 504 102 504 48.9882 285.341 48.9882Z" fill="#1269B0" fill-rule="evenodd" transform="matrix(1 0 0 -1 2421 1347)"/><path d="M379.5 1497.5C379.5 1432.88 431.883 1380.5 496.5 1380.5 561.117 1380.5 613.5 1432.88 613.5 1497.5 613.5 1562.12 561.117 1614.5 496.5 1614.5 431.883 1614.5 379.5 1562.12 379.5 1497.5Z" stroke="#1269B0" stroke-width="11.4583" stroke-linecap="round" stroke-linejoin="round" stroke-miterlimit="10" fill="none" fill-rule="evenodd"/><text fill="#404040" font-family="Arial,Arial_MSFontService,sans-serif" font-weight="700" font-size="64" transform="matrix(1 0 0 1 669.541 1426)">Bachelor</text><text font-family="Arial,Arial_MSFontService,sans-serif" font-weight="400" font-size="48" transform="matrix(1 0 0 1 669.541 1511)">Civil Engineering, Top of </text><text font-family="Arial,Arial_MSFontService,sans-serif" font-weight="400" font-size="48" transform="matrix(1 0 0 1 669.541 1584)">Class (1</text><text font-family="Arial,Arial_MSFontService,sans-serif" font-weight="400" font-size="32" transform="matrix(1 0 0 1 846.572 1570)">st</text><text font-family="Arial,Arial_MSFontService,sans-serif" font-weight="400" font-size="48" transform="matrix(1 0 0 1 871.78 1584)">/750)</text><path d="M1474.5 1497.5C1474.5 1432.88 1526.88 1380.5 1591.5 1380.5 1656.12 1380.5 1708.5 1432.88 1708.5 1497.5 1708.5 1562.12 1656.12 1614.5 1591.5 1614.5 1526.88 1614.5 1474.5 1562.12 1474.5 1497.5Z" stroke="#1269B0" stroke-width="11.4583" stroke-linecap="round" stroke-linejoin="round" stroke-miterlimit="10" fill="none" fill-rule="evenodd"/><text fill="#404040" font-family="Arial,Arial_MSFontService,sans-serif" font-weight="700" font-size="64" transform="matrix(1 0 0 1 1764.65 1426)">Lecturer/MSc student</text><text fill="#404040" font-family="Arial,Arial_MSFontService,sans-serif" font-weight="400" font-size="48" transform="matrix(1 0 0 1 1764.65 1511)">M</text><text fill="#404040" font-family="Arial,Arial_MSFontService,sans-serif" font-weight="400" font-size="48" transform="matrix(1 0 0 1 1804.75 1511)">ansoura</text><text fill="#404040" font-family="Arial,Arial_MSFontService,sans-serif" font-weight="400" font-size="48" transform="matrix(1 0 0 1 1992.67 1511)">University</text><text fill="#404040" font-family="Arial,Arial_MSFontService,sans-serif" font-weight="400" font-size="48" transform="matrix(1 0 0 1 1764.65 1584)">Part</text><text fill="#404040" font-family="Arial,Arial_MSFontService,sans-serif" font-weight="400" font-size="48" transform="matrix(1 0 0 1 1852.88 1584)">-</text><text fill="#404040" font-family="Arial,Arial_MSFontService,sans-serif" font-weight="400" font-size="48" transform="matrix(1 0 0 1 1868.92 1584)">time MSc obtained in 2021</text><path d="M2568.5 1497.5C2568.5 1432.88 2620.88 1380.5 2685.5 1380.5 2750.12 1380.5 2802.5 1432.88 2802.5 1497.5 2802.5 1562.12 2750.12 1614.5 2685.5 1614.5 2620.88 1614.5 2568.5 1562.12 2568.5 1497.5Z" stroke="#1269B0" stroke-width="11.4583" stroke-linecap="round" stroke-linejoin="round" stroke-miterlimit="10" fill="none" fill-rule="evenodd"/><text fill="#404040" font-family="Arial,Arial_MSFontService,sans-serif" font-weight="700" font-size="64" transform="matrix(1 0 0 1 2859.01 1426)">PhD</text><text fill="#404040" font-family="Arial,Arial_MSFontService,sans-serif" font-weight="400" font-size="48" transform="matrix(1 0 0 1 2859.01 1511)">ETH </text><text fill="#404040" font-family="Arial,Arial_MSFontService,sans-serif" font-weight="400" font-size="48" transform="matrix(1 0 0 1 2968.43 1511)">Zurich</text><path d="M927.5 1058.5C927.5 993.883 979.659 941.5 1044 941.5 1108.34 941.5 1160.5 993.883 1160.5 1058.5 1160.5 1123.12 1108.34 1175.5 1044 1175.5 979.659 1175.5 927.5 1123.12 927.5 1058.5Z" stroke="#AAC9E3" stroke-width="11.4583" stroke-linecap="round" stroke-linejoin="round" stroke-miterlimit="10" fill="none" fill-rule="evenodd"/><text fill="#404040" font-family="Arial,Arial_MSFontService,sans-serif" font-weight="700" font-size="64" transform="matrix(1 0 0 1 1194.31 979)">Structural Engineer</text><text fill="#404040" font-family="Arial,Arial_MSFontService,sans-serif" font-weight="400" font-size="48" transform="matrix(1 0 0 1 1198.8 1058)">Part</text><text fill="#404040" font-family="Arial,Arial_MSFontService,sans-serif" font-weight="400" font-size="48" transform="matrix(1 0 0 1 1287.03 1058)">-</text><text fill="#404040" font-family="Arial,Arial_MSFontService,sans-serif" font-weight="400" font-size="48" transform="matrix(1 0 0 1 1303.07 1058)">time</text><text fill="#404040" font-family="Arial,Arial_MSFontService,sans-serif" font-weight="400" font-size="48" transform="matrix(1 0 0 1 1198.8 1131)">Hamed Asker Consulting</text><path d="M2021.5 1046.5C2021.5 988.51 2068.51 941.5 2126.5 941.5 2184.49 941.5 2231.5 988.51 2231.5 1046.5 2231.5 1104.49 2184.49 1151.5 2126.5 1151.5 2068.51 1151.5 2021.5 1104.49 2021.5 1046.5Z" stroke="#AAC9E3" stroke-width="11.4583" stroke-linecap="round" stroke-linejoin="round" stroke-miterlimit="10" fill="none" fill-rule="evenodd"/><text fill="#404040" font-family="Arial,Arial_MSFontService,sans-serif" font-weight="700" font-size="64" transform="matrix(1 0 0 1 2293.15 973)">MSc</text><text fill="#404040" font-family="Arial,Arial_MSFontService,sans-serif" font-weight="400" font-size="48" transform="matrix(1 0 0 1 2293.15 1058)">University of Alaska </text><text fill="#404040" font-family="Arial,Arial_MSFontService,sans-serif" font-weight="400" font-size="48" transform="matrix(1 0 0 1 2293.15 1131)">Anchorage</text><path d="M3164.5 1046.5C3164.5 988.51 3211.51 941.5 3269.5 941.5 3327.49 941.5 3374.5 988.51 3374.5 1046.5 3374.5 1104.49 3327.49 1151.5 3269.5 1151.5 3211.51 1151.5 3164.5 1104.49 3164.5 1046.5Z" stroke="#AAC9E3" stroke-width="11.4583" stroke-linecap="round" stroke-linejoin="round" stroke-miterlimit="10" fill="none" fill-rule="evenodd"/><text fill="#404040" font-family="Arial,Arial_MSFontService,sans-serif" font-weight="700" font-size="64" transform="matrix(1 0 0 1 3435.71 973)">Postdoc</text><text fill="#404040" font-family="Arial,Arial_MSFontService,sans-serif" font-weight="400" font-size="48" transform="matrix(1 0 0 1 3435.71 1058)">ETH Zurich</text><text fill="#AAC9E3" font-family="Arial,Arial_MSFontService,sans-serif" font-weight="700" font-size="64" transform="matrix(1 0 0 1 973.605 1021)">2016</text><text fill="#AAC9E3" font-family="Arial,Arial_MSFontService,sans-serif" font-weight="700" font-size="64" transform="matrix(1 0 0 1 1034.06 1079)">-</text><text fill="#AAC9E3" font-family="Arial,Arial_MSFontService,sans-serif" font-weight="700" font-size="64" transform="matrix(1 0 0 1 973.605 1137)">2018</text><text fill="#1269B0" font-family="Arial,Arial_MSFontService,sans-serif" font-weight="700" font-size="64" transform="matrix(1 0 0 1 426.309 1462)">2011</text><text fill="#1269B0" font-family="Arial,Arial_MSFontService,sans-serif" font-weight="700" font-size="64" transform="matrix(1 0 0 1 484.999 1520)">-</text><text fill="#1269B0" font-family="Arial,Arial_MSFontService,sans-serif" font-weight="700" font-size="64" transform="matrix(1 0 0 1 424.545 1578)">2016</text><text fill="#1269B0" font-family="Arial,Arial_MSFontService,sans-serif" font-weight="700" font-size="64" transform="matrix(1 0 0 1 2614.01 1462)">2022</text><text fill="#1269B0" font-family="Arial,Arial_MSFontService,sans-serif" font-weight="700" font-size="64" transform="matrix(1 0 0 1 2674.47 1520)">-</text><text fill="#1269B0" font-family="Arial,Arial_MSFontService,sans-serif" font-weight="700" font-size="64" transform="matrix(1 0 0 1 2614.01 1578)">2025</text><text fill="#AAC9E3" font-family="Arial,Arial_MSFontService,sans-serif" font-weight="700" font-size="64" transform="matrix(1 0 0 1 2053.95 1067)">2020</text><text fill="#AAC9E3" font-family="Arial,Arial_MSFontService,sans-serif" font-weight="700" font-size="64" transform="matrix(1 0 0 1 3196.5 1067)">2026</text><text fill="#1269B0" font-family="Arial,Arial_MSFontService,sans-serif" font-weight="700" font-size="50" transform="matrix(1 0 0 1 1533.09 1439)">2017</text><text fill="#1269B0" font-family="Arial,Arial_MSFontService,sans-serif" font-weight="700" font-size="50" transform="matrix(1 0 0 1 1580.94 1484)">-</text><text fill="#1269B0" font-family="Arial,Arial_MSFontService,sans-serif" font-weight="700" font-size="50" transform="matrix(1 0 0 1 1533.09 1530)">2019</text><text fill="#1269B0" font-family="Arial,Arial_MSFontService,sans-serif" font-weight="700" font-size="50" transform="matrix(1 0 0 1 1507.88 1575)">&amp; 2021</text><path d="M3253.93 1242.47 3227.98 1197.6C3224.48 1191.52 3215.72 1191.44 3212.2 1197.53L3186.24 1242.47 2968 1242.47 2968 1296 3473 1296 3473 1242.47 3253.91 1242.47Z" fill="#AAC9E3" fill-rule="evenodd"/><path d="M504.976 0 26.3127 0C11.7887 0 0 12.001 0 26.4022 0 40.8035 11.7646 52.8045 26.3127 52.8045L225.074 52.8045 245.359 87.4634C248.845 93.4641 257.583 93.5359 261.094 87.5355L281.379 52.8045 505 52.8045 505 0Z" fill="#1269B0" fill-rule="evenodd" transform="matrix(-1 0 0 1 4021 1245)"/><text fill="#404040" font-family="Arial,Arial_MSFontService,sans-serif" font-weight="700" font-size="64" transform="matrix(1 0 0 1 3789.14 1424)">Postdoc</text><text fill="#1269B0" font-family="Arial,Arial_MSFontService,sans-serif" font-weight="700" font-size="64" transform="matrix(1 0 0 1 3552.9 1462)">2026</text><text fill="#1269B0" font-family="Arial,Arial_MSFontService,sans-serif" font-weight="700" font-size="64" transform="matrix(1 0 0 1 3613.36 1520)">-</text><text fill="#1269B0" font-family="Arial,Arial_MSFontService,sans-serif" font-weight="700" font-size="64" transform="matrix(1 0 0 1 3552.9 1578)">2028</text><path d="M3513.5 1497.5C3513.5 1432.88 3565.88 1380.5 3630.5 1380.5 3695.12 1380.5 3747.5 1432.88 3747.5 1497.5 3747.5 1562.12 3695.12 1614.5 3630.5 1614.5 3565.88 1614.5 3513.5 1562.12 3513.5 1497.5Z" stroke="#1269B0" stroke-width="11.4583" stroke-linecap="round" stroke-linejoin="round" stroke-miterlimit="10" stroke-dasharray="34.375 45.8333" fill="none" fill-rule="evenodd"/><text fill="#404040" font-family="Arial,Arial_MSFontService,sans-serif" font-weight="400" font-size="48" transform="matrix(1 0 0 1 3814.89 1511)">MIT</text></g></svg>
