<svg width="4128" height="1096" viewBox="0 0 4128 1096" xmlns="http://www.w3.org/2000/svg" xmlns:xlink="http://www.w3.org/1999/xlink" xml:space="preserve" overflow="hidden"><defs><filter id="fx0" x="-10%" y="-10%" width="120%" height="120%" filterUnits="userSpaceOnUse" primitiveUnits="userSpaceOnUse"><feComponentTransfer color-interpolation-filters="sRGB"><feFuncR type="discrete" tableValues="0.666667 0.666667"/><feFuncG type="discrete" tableValues="0.788235 0.788235"/><feFuncB type="discrete" tableValues="0.890196 0.890196"/><feFuncA type="linear" slope="0.388235" intercept="0"/></feComponentTransfer><feGaussianBlur stdDeviation="6.4962 6.49306"/></filter><clipPath id="clip1"><rect x="-26" y="774" width="4128" height="1096"/></clipPath></defs><g clip-path="url(#clip1)" transform="translate(26 -774)"><g filter="url(#fx0)" transform="matrix(3.99806 0 0 4 -27 774)"><g><path d="M19.7746 58.7904C19.7746 37.1931 37.2911 19.685 58.8988 19.685L974.101 19.685C995.709 19.685 1013.23 37.1931 1013.23 58.7904L1013.23 215.21C1013.23 236.807 995.709 254.315 974.101 254.315L58.8988 254.315C37.2911 254.315 19.7746 236.807 19.7746 215.21Z" fill="#FFFFFF" fill-rule="evenodd"/></g></g><path d="M32 1006C32 918.74 102.739 848 190.001 848L3886 848C3973.26 848 4044 918.74 4044 1006L4044 1638C4044 1725.26 3973.26 1796 3886 1796L190.001 1796C102.739 1796 32 1725.26 32 1638Z" fill="#FFFFFF" fill-rule="evenodd"/><path d="M630.976 1302 152.313 1302C137.789 1302 126 1314.13 126 1328.69 126 1343.25 137.765 1355.38 152.313 1355.38L351.074 1355.38 371.359 1390.41C374.845 1396.48 383.584 1396.55 387.094 1390.49L407.379 1355.38 631 1355.38 631 1302Z" fill="#1269B0" fill-rule="evenodd"/><path d="M959.932 1299.99 933.978 1255.55C930.482 1249.53 921.717 1249.46 918.197 1255.48L892.243 1299.99 674 1299.99 674 1353 1179 1353 1179 1299.99 959.908 1299.99Z" fill="#AAC9E3" fill-rule="evenodd"/><path d="M285.366 49.4683 259.463 4.59905C255.974-1.48422 247.227-1.55703 243.713 4.52599L217.81 49.4683 0 49.4683 0 103 504 103 504 49.4683 285.341 49.4683Z" fill="#1269B0" fill-rule="evenodd" transform="matrix(1 0 0 -1 1222 1405)"/><path d="M2054.37 1299.99 2028.46 1255.55C2024.97 1249.53 2016.23 1249.46 2012.71 1255.48L1986.81 1299.99 1769 1299.99 1769 1353 2273 1353 2273 1299.99 2054.34 1299.99Z" fill="#AAC9E3" fill-rule="evenodd"/><path d="M285.366 49.4683 259.463 4.59905C255.974-1.48422 247.227-1.55703 243.713 4.52599L217.81 49.4683 0 49.4683 0 103 504 103 504 49.4683 285.342 49.4683Z" fill="#1269B0" fill-rule="evenodd" transform="matrix(1 0 0 -1 2316 1405)"/><path d="M273.5 1555.5C273.5 1490.88 325.883 1438.5 390.5 1438.5 455.117 1438.5 507.5 1490.88 507.5 1555.5 507.5 1620.12 455.117 1672.5 390.5 1672.5 325.883 1672.5 273.5 1620.12 273.5 1555.5Z" stroke="#1269B0" stroke-width="11.4583" stroke-linecap="round" stroke-linejoin="round" stroke-miterlimit="10" fill="none" fill-rule="evenodd"/><text fill="#404040" font-family="Arial,Arial_MSFontService,sans-serif" font-weight="700" font-size="64" transform="matrix(1 0 0 1 564.32 1483)">Bachelor</text><text font-family="Arial,Arial_MSFontService,sans-serif" font-weight="400" font-size="48" transform="matrix(1 0 0 1 564.32 1569)">Civil Engineering, Top of </text><text font-family="Arial,Arial_MSFontService,sans-serif" font-weight="400" font-size="48" transform="matrix(1 0 0 1 564.32 1642)">Class (1</text><text font-family="Arial,Arial_MSFontService,sans-serif" font-weight="400" font-size="32" transform="matrix(1 0 0 1 741.351 1628)">st</text><text font-family="Arial,Arial_MSFontService,sans-serif" font-weight="400" font-size="48" transform="matrix(1 0 0 1 766.56 1642)">/750)</text><path d="M1369.5 1555.5C1369.5 1490.88 1421.66 1438.5 1486 1438.5 1550.34 1438.5 1602.5 1490.88 1602.5 1555.5 1602.5 1620.12 1550.34 1672.5 1486 1672.5 1421.66 1672.5 1369.5 1620.12 1369.5 1555.5Z" stroke="#1269B0" stroke-width="11.4583" stroke-linecap="round" stroke-linejoin="round" stroke-miterlimit="10" fill="none" fill-rule="evenodd"/><text fill="#404040" font-family="Arial,Arial_MSFontService,sans-serif" font-weight="700" font-size="64" transform="matrix(1 0 0 1 1659.43 1483)">Lecturer/MSc student</text><text fill="#404040" font-family="Arial,Arial_MSFontService,sans-serif" font-weight="400" font-size="48" transform="matrix(1 0 0 1 1659.43 1569)">M</text><text fill="#404040" font-family="Arial,Arial_MSFontService,sans-serif" font-weight="400" font-size="48" transform="matrix(1 0 0 1 1699.53 1569)">ansoura</text><text fill="#404040" font-family="Arial,Arial_MSFontService,sans-serif" font-weight="400" font-size="48" transform="matrix(1 0 0 1 1887.45 1569)">University</text><text fill="#404040" font-family="Arial,Arial_MSFontService,sans-serif" font-weight="400" font-size="48" transform="matrix(1 0 0 1 1659.43 1642)">Part</text><text fill="#404040" font-family="Arial,Arial_MSFontService,sans-serif" font-weight="400" font-size="48" transform="matrix(1 0 0 1 1747.66 1642)">-</text><text fill="#404040" font-family="Arial,Arial_MSFontService,sans-serif" font-weight="400" font-size="48" transform="matrix(1 0 0 1 1763.7 1642)">time MSc obtained in 2021</text><path d="M2463.5 1555.5C2463.5 1490.88 2515.88 1438.5 2580.5 1438.5 2645.12 1438.5 2697.5 1490.88 2697.5 1555.5 2697.5 1620.12 2645.12 1672.5 2580.5 1672.5 2515.88 1672.5 2463.5 1620.12 2463.5 1555.5Z" stroke="#1269B0" stroke-width="11.4583" stroke-linecap="round" stroke-linejoin="round" stroke-miterlimit="10" fill="none" fill-rule="evenodd"/><text fill="#404040" font-family="Arial,Arial_MSFontService,sans-serif" font-weight="700" font-size="64" transform="matrix(1 0 0 1 2753.79 1483)">PhD</text><text fill="#404040" font-family="Arial,Arial_MSFontService,sans-serif" font-weight="400" font-size="48" transform="matrix(1 0 0 1 2753.79 1569)">ETH </text><text fill="#404040" font-family="Arial,Arial_MSFontService,sans-serif" font-weight="400" font-size="48" transform="matrix(1 0 0 1 2863.21 1569)">Zurich</text><path d="M821.5 1115.5C821.5 1050.88 873.883 998.5 938.5 998.5 1003.12 998.5 1055.5 1050.88 1055.5 1115.5 1055.5 1180.12 1003.12 1232.5 938.5 1232.5 873.883 1232.5 821.5 1180.12 821.5 1115.5Z" stroke="#AAC9E3" stroke-width="11.4583" stroke-linecap="round" stroke-linejoin="round" stroke-miterlimit="10" fill="none" fill-rule="evenodd"/><text fill="#404040" font-family="Arial,Arial_MSFontService,sans-serif" font-weight="700" font-size="64" transform="matrix(1 0 0 1 1089.09 1037)">Structural Engineer</text><text fill="#404040" font-family="Arial,Arial_MSFontService,sans-serif" font-weight="400" font-size="48" transform="matrix(1 0 0 1 1093.58 1116)">Part</text><text fill="#404040" font-family="Arial,Arial_MSFontService,sans-serif" font-weight="400" font-size="48" transform="matrix(1 0 0 1 1181.81 1116)">-</text><text fill="#404040" font-family="Arial,Arial_MSFontService,sans-serif" font-weight="400" font-size="48" transform="matrix(1 0 0 1 1197.85 1116)">time</text><text fill="#404040" font-family="Arial,Arial_MSFontService,sans-serif" font-weight="400" font-size="48" transform="matrix(1 0 0 1 1093.58 1189)">Hamed Asker Consulting</text><path d="M1916.5 1104C1916.5 1045.73 1963.51 998.5 2021.5 998.5 2079.49 998.5 2126.5 1045.73 2126.5 1104 2126.5 1162.27 2079.49 1209.5 2021.5 1209.5 1963.51 1209.5 1916.5 1162.27 1916.5 1104Z" stroke="#AAC9E3" stroke-width="11.4583" stroke-linecap="round" stroke-linejoin="round" stroke-miterlimit="10" fill="none" fill-rule="evenodd"/><text fill="#404040" font-family="Arial,Arial_MSFontService,sans-serif" font-weight="700" font-size="64" transform="matrix(1 0 0 1 2187.93 1031)">MSc</text><text fill="#404040" font-family="Arial,Arial_MSFontService,sans-serif" font-weight="400" font-size="48" transform="matrix(1 0 0 1 2187.93 1116)">University of Alaska </text><text fill="#404040" font-family="Arial,Arial_MSFontService,sans-serif" font-weight="400" font-size="48" transform="matrix(1 0 0 1 2187.93 1189)">Anchorage</text><path d="M3058.5 1104C3058.5 1045.73 3105.73 998.5 3164 998.5 3222.27 998.5 3269.5 1045.73 3269.5 1104 3269.5 1162.27 3222.27 1209.5 3164 1209.5 3105.73 1209.5 3058.5 1162.27 3058.5 1104Z" stroke="#AAC9E3" stroke-width="11.4583" stroke-linecap="round" stroke-linejoin="round" stroke-miterlimit="10" fill="none" fill-rule="evenodd"/><text fill="#404040" font-family="Arial,Arial_MSFontService,sans-serif" font-weight="700" font-size="64" transform="matrix(1 0 0 1 3330.49 1031)">Postdoc</text><text fill="#404040" font-family="Arial,Arial_MSFontService,sans-serif" font-weight="400" font-size="48" transform="matrix(1 0 0 1 3330.49 1116)">ETH Zurich</text><text fill="#AAC9E3" font-family="Arial,Arial_MSFontService,sans-serif" font-weight="700" font-size="64" transform="matrix(1 0 0 1 868.384 1078)">2016</text><text fill="#AAC9E3" font-family="Arial,Arial_MSFontService,sans-serif" font-weight="700" font-size="64" transform="matrix(1 0 0 1 928.838 1136)">-</text><text fill="#AAC9E3" font-family="Arial,Arial_MSFontService,sans-serif" font-weight="700" font-size="64" transform="matrix(1 0 0 1 868.384 1194)">2018</text><text fill="#1269B0" font-family="Arial,Arial_MSFontService,sans-serif" font-weight="700" font-size="64" transform="matrix(1 0 0 1 321.089 1519)">2011</text><text fill="#1269B0" font-family="Arial,Arial_MSFontService,sans-serif" font-weight="700" font-size="64" transform="matrix(1 0 0 1 379.778 1577)">-</text><text fill="#1269B0" font-family="Arial,Arial_MSFontService,sans-serif" font-weight="700" font-size="64" transform="matrix(1 0 0 1 319.324 1635)">2016</text><text fill="#1269B0" font-family="Arial,Arial_MSFontService,sans-serif" font-weight="700" font-size="64" transform="matrix(1 0 0 1 2508.79 1519)">2022</text><text fill="#1269B0" font-family="Arial,Arial_MSFontService,sans-serif" font-weight="700" font-size="64" transform="matrix(1 0 0 1 2569.25 1577)">-</text><text fill="#1269B0" font-family="Arial,Arial_MSFontService,sans-serif" font-weight="700" font-size="64" transform="matrix(1 0 0 1 2508.79 1635)">2025</text><text fill="#AAC9E3" font-family="Arial,Arial_MSFontService,sans-serif" font-weight="700" font-size="64" transform="matrix(1 0 0 1 1948.72 1125)">2020</text><text fill="#AAC9E3" font-family="Arial,Arial_MSFontService,sans-serif" font-weight="700" font-size="64" transform="matrix(1 0 0 1 3091.28 1125)">2026</text><text fill="#1269B0" font-family="Arial,Arial_MSFontService,sans-serif" font-weight="700" font-size="50" transform="matrix(1 0 0 1 1427.87 1497)">2017</text><text fill="#1269B0" font-family="Arial,Arial_MSFontService,sans-serif" font-weight="700" font-size="50" transform="matrix(1 0 0 1 1475.72 1542)">-</text><text fill="#1269B0" font-family="Arial,Arial_MSFontService,sans-serif" font-weight="700" font-size="50" transform="matrix(1 0 0 1 1427.87 1588)">2019</text><text fill="#1269B0" font-family="Arial,Arial_MSFontService,sans-serif" font-weight="700" font-size="50" transform="matrix(1 0 0 1 1402.66 1633)">&amp; 2021</text><path d="M3148.37 1299.99 3122.46 1255.55C3118.97 1249.53 3110.23 1249.46 3106.71 1255.48L3080.81 1299.99 2863 1299.99 2863 1353 3367 1353 3367 1299.99 3148.34 1299.99Z" fill="#AAC9E3" fill-rule="evenodd"/><path d="M505.976 0 26.3648 0C11.8121 0 0 12.1315 0 26.6892 0 41.247 11.7879 53.3785 26.3648 53.3785L225.52 53.3785 245.845 88.4142C249.338 94.48 258.093 94.5526 261.611 88.487L281.936 53.3785 506 53.3785 506 0Z" fill="#1269B0" fill-rule="evenodd" transform="matrix(-1 0 0 1 3916 1302)"/><text fill="#404040" font-family="Arial,Arial_MSFontService,sans-serif" font-weight="700" font-size="64" transform="matrix(1 0 0 1 3683.92 1481)">Postdoc</text><text fill="#1269B0" font-family="Arial,Arial_MSFontService,sans-serif" font-weight="700" font-size="64" transform="matrix(1 0 0 1 3447.68 1519)">2026</text><text fill="#1269B0" font-family="Arial,Arial_MSFontService,sans-serif" font-weight="700" font-size="64" transform="matrix(1 0 0 1 3508.14 1577)">-</text><text fill="#1269B0" font-family="Arial,Arial_MSFontService,sans-serif" font-weight="700" font-size="64" transform="matrix(1 0 0 1 3447.68 1635)">2028</text><path d="M3408.5 1555.5C3408.5 1490.88 3460.88 1438.5 3525.5 1438.5 3590.12 1438.5 3642.5 1490.88 3642.5 1555.5 3642.5 1620.12 3590.12 1672.5 3525.5 1672.5 3460.88 1672.5 3408.5 1620.12 3408.5 1555.5Z" stroke="#1269B0" stroke-width="11.4583" stroke-linecap="round" stroke-linejoin="round" stroke-miterlimit="10" stroke-dasharray="34.375 45.8333" fill="none" fill-rule="evenodd"/></g></svg>
